<svg width="25" height="24" viewBox="0 0 25 24" fill="none" xmlns="http://www.w3.org/2000/svg">
<path d="M22.2712 2.1499L21.0676 2.5499C19.0049 3.26445 16.8021 3.48372 14.6384 3.1899C12.3648 2.83811 10.0376 3.15072 7.93846 4.0899C6.82562 4.56235 5.84898 5.30482 5.09746 6.24971C4.34594 7.19461 3.84342 8.31191 3.63563 9.4999C3.42427 10.6424 3.44589 11.8155 3.6992 12.9495C3.95252 14.0834 4.43233 15.1549 5.11003 16.0999C5.04985 16.3099 4.98967 16.5199 4.93952 16.7299C4.53214 18.4569 4.33015 20.2258 4.33772 21.9999H6.3437C6.43798 20.5477 6.63574 19.1041 6.93547 17.6799C8.32705 18.4291 9.88762 18.8112 11.469 18.7899C12.9439 18.7889 14.4036 18.4931 15.7618 17.9199C23.3945 14.6699 22.3915 3.8599 22.3915 3.4099L22.2712 2.1499ZM14.9794 16.0799C12.3616 17.1899 9.23231 16.9999 7.47708 15.6299C7.77373 14.6409 8.18082 13.6883 8.6907 12.7899C9.08708 12.1433 9.5547 11.5429 10.0849 10.9999C10.6266 10.4511 11.2367 9.97386 11.9003 9.5799C13.2714 8.76245 14.7921 8.22535 16.3736 7.9999V6.9999C14.554 6.9371 12.7455 7.30731 11.0979 8.0799C9.41327 8.89945 7.98462 10.1614 6.96556 11.7299C6.5876 12.329 6.25244 12.9539 5.96257 13.5999C5.4977 12.4143 5.36593 11.1247 5.58143 9.8699C5.72263 8.99144 6.08583 8.16328 6.63683 7.46347C7.18782 6.76366 7.90845 6.21524 8.73082 5.8699C9.93001 5.31106 11.2385 5.02418 12.5622 5.0299C13.1841 5.0299 13.7959 5.0899 14.4378 5.1399C16.4481 5.3985 18.4892 5.2798 20.4558 4.7899C20.3856 7.5499 19.8841 13.9999 14.9794 16.0799Z" fill="#A4A6AF"/>
</svg>
